<?xml version="1.0" encoding="UTF-8" standalone="no"?>
<!-- Created with Inkscape (http://www.inkscape.org/) -->

<svg
   width="210mm"
   height="297mm"
   viewBox="0 0 210 297"
   version="1.1"
   id="svg5"
   inkscape:version="1.1.2 (b8e25be8, 2022-02-05)"
   sodipodi:docname="rockPS.svg"
   xmlns:inkscape="http://www.inkscape.org/namespaces/inkscape"
   xmlns:sodipodi="http://sodipodi.sourceforge.net/DTD/sodipodi-0.dtd"
   xmlns="http://www.w3.org/2000/svg"
   xmlns:svg="http://www.w3.org/2000/svg">
  <sodipodi:namedview
     id="namedview7"
     pagecolor="#ffffff"
     bordercolor="#666666"
     borderopacity="1.0"
     inkscape:pageshadow="2"
     inkscape:pageopacity="0.0"
     inkscape:pagecheckerboard="0"
     inkscape:document-units="mm"
     showgrid="false"
     inkscape:zoom="0.48462402"
     inkscape:cx="397.21515"
     inkscape:cy="561.25984"
     inkscape:window-width="1440"
     inkscape:window-height="900"
     inkscape:window-x="0"
     inkscape:window-y="0"
     inkscape:window-maximized="0"
     inkscape:current-layer="g146" />
  <defs
     id="defs2">
    <style
       id="style84">.cls-1{fill:#26006e;}.cls-2,.cls-5{fill:#0c7ceb;}.cls-3,.cls-6{fill:#00dfba;}.cls-4,.cls-8{fill:#fe2bf1;}.cls-5,.cls-6,.cls-8{font-size:64px;font-family:RobotoCondensed-Bold, Roboto Condensed;font-weight:700;}.cls-5,.cls-7{letter-spacing:0.01em;}.cls-6{letter-spacing:-0.08em;}.cls-8{letter-spacing:0.01em;}</style>
  </defs>
  <g
     inkscape:label="Layer 1"
     inkscape:groupmode="layer"
     id="layer1">
    <g
       id="g146"
       transform="matrix(0.26458333,0,0,0.26458333,-45.69608,24.691178)">
      <g
         id="g279">
        <g
           id="g252">
          <path
             class="cls-2"
             d="m 1156.6674,467.80325 h 40 v -43.84 a 32.24,32.24 0 0 1 10.14,-23.46 l 15.31,-108.93 a 22.69,22.69 0 0 0 -44.93,-6.31 l -21.22,145.52 a 4,4 0 0 1 -7.92,0 l -21.27,-145.93 a 22.684769,22.684769 0 1 0 -44.93,6.3 c 5.87,43.8 10.31,75.05 13.56,97.87 8.22,57.79 9.61,67.63 9.85,108.53 a 59.4,59.4 0 0 1 51.41,-29.75 z"
             id="path93" />
          <path
             class="cls-2"
             d="m 1285.7574,516.61325 a 32.36,32.36 0 0 1 -27,-14.54 44.76,44.76 0 0 1 -41.89,29.1 h -16 a 51.39,51.39 0 0 1 23.89,43.37 v 14 a 4,4 0 0 1 -8,0 v -14 a 43.42,43.42 0 0 0 -43.4,-43.32 4,4 0 0 1 -4,-4 v 0 a 4,4 0 0 1 4,-4 h 43.52 a 36.54,36.54 0 0 0 23.73,-8.74 37.09,37.09 0 0 0 8.16,-9.85 36.4,36.4 0 0 0 4.77,-17.28 c 0,-0.27 0,-0.54 0,-0.82 a 10,10 0 0 0 -0.17,-1.66 c 0,-0.13 0,-0.26 0,-0.39 a 10.7,10.7 0 0 0 -10.48,-8.63 h -86.22 a 51.44,51.44 0 0 0 -51.36,51.37 v 0 c 0,30.59 11.51,58.23 32.4,77.82 a 103,103 0 0 0 76.84,27.37 c 53.59,-3.47 95.58,-50 95.58,-105.84 v -21 a 32.29,32.29 0 0 1 -24.37,11.04 z"
             id="path95" />
          <path
             class="cls-2"
             d="m 1285.7574,425.22325 a 24.41,24.41 0 0 0 -24.38,24.38 v 34.32 a 18.18,18.18 0 0 1 0.2,2.57 c 0,0.2 0,0.41 0,0.61 a 24.36,24.36 0 0 0 48.56,-2.85 v -34.66 a 24.4,24.4 0 0 0 -24.38,-24.37 z"
             id="path97" />
          <path
             class="cls-2"
             d="m 1221.1274,400.92325 q -0.54,0.18 -1,0.39 c -0.35,0.14 -0.7,0.28 -1,0.44 -0.3,0.16 -0.72,0.33 -1.07,0.51 l -0.92,0.49 c -0.38,0.21 -0.75,0.44 -1.11,0.68 -0.36,0.24 -0.52,0.32 -0.78,0.5 -0.26,0.18 -0.77,0.56 -1.14,0.86 -0.22,0.17 -0.44,0.33 -0.65,0.51 a 24.33,24.33 0 0 0 -8.74,18.66 v 43.84 h 38.27 a 18.51,18.51 0 0 1 10.48,3.23 v -47.07 a 24.4,24.4 0 0 0 -21.88,-24.24 22.81,22.81 0 0 0 -2.49,-0.13 22.24,22.24 0 0 0 -2.32,0.12 c -0.31,0 -0.62,0.08 -0.92,0.12 -0.3,0.04 -0.9,0.12 -1.34,0.21 -0.44,0.09 -0.73,0.16 -1.09,0.24 -0.36,0.08 -0.74,0.18 -1.11,0.29 z"
             id="path99" />
        </g>
        <text
           class="cls-5"
           id="text114"
           x="1077.7778"
           y="762.5976">SCISSORS</text>
      </g>
      <g
         id="g271">
        <g
           id="g246">
          <path
             class="cls-3"
             d="m 831.55744,342.34325 a 18.09,18.09 0 0 0 -18.07,18.06 v 86.39 a 4,4 0 1 1 -8,0 v -128.85 a 21.2,21.2 0 0 0 -21.18,-21.18 21,21 0 0 0 -15.28,6.29 21.44,21.44 0 0 0 -5.9,15 v 128.74 a 4,4 0 0 1 -8,0 v -127.17 a 22.89,22.89 0 0 0 -22.86,-22.86 c -14.31,0 -22.86,12.36 -22.86,24.3 v 125.73 a 4,4 0 0 1 -8,0 v -103 a 21.2,21.2 0 0 0 -21.18,-21.18 c -13.26,0 -21.18,11.45 -21.18,22.53 v 156.29 h 47 a 64.49,64.49 0 0 1 48.85,22.37 4,4 0 0 1 -0.41,5.64 4,4 0 0 1 -5.64,-0.41 56.51,56.51 0 0 0 -42.8,-19.6 h -51 a 4.53,4.53 0 0 1 -0.53,-0.05 h -0.21 a 4.43,4.43 0 0 1 -0.95,-0.32 l -0.21,-0.11 a 4.64,4.64 0 0 1 -0.74,-0.51 l -0.1,-0.08 -19.83,-18.63 a 37.67,37.67 0 0 0 -52.56,0.73 9.8,9.8 0 0 0 -0.3,13.64 l 75.11,81.49 c 30.13,33.4 60.75,47 105.69,47 49.19,0 89.21,-40.43 89.21,-90.14 v -181.16 c 0.04,-9.19 -6.33,-18.95 -18.07,-18.95 z"
             id="path101" />
        </g>
        <text
           class="cls-6"
           id="text118"
           x="667.7478"
           y="762.5976">P<tspan
   class="cls-7"
   x="699.22778"
   y="762.5976"
   id="tspan116">APER</tspan></text>
      </g>
      <g
         id="g265">
        <g
           id="g243">
          <path
             class="cls-4"
             d="m 351.03744,455.32325 v -53.4 a 26.59,26.59 0 0 0 -53.18,0 v 51.93 h 46.9 a 14.26,14.26 0 0 1 6.28,1.47 z"
             id="path103" />
          <path
             class="cls-4"
             d="m 228.01744,453.85325 v -53.95 a 22.22,22.22 0 0 0 -44.44,0 v 66.48 a 56.21,56.21 0 0 1 35.42,-12.53 z"
             id="path105" />
          <path
             class="cls-4"
             d="m 383.76744,509.38325 a 32.72,32.72 0 0 1 -28.31,-16.37 49.65,49.65 0 0 1 -46,31.11 h -33.24 a 54.64,54.64 0 0 1 26.2,46.63 v 15 a 4,4 0 0 1 -8,0 v -15 a 46.69,46.69 0 0 0 -46.63,-46.63 h -0.71 a 4,4 0 0 1 -4,-4 v 0 a 4,4 0 0 1 4,-4 h 62.39 a 41.61,41.61 0 0 0 41.57,-41.56 v -6.43 a 6.28,6.28 0 0 0 -6.28,-6.28 h -125.76 a 48.4,48.4 0 0 0 -36.94,17.13 c -0.67,0.79 -1.33,1.59 -1.94,2.42 -0.26,0.34 -0.5,0.69 -0.74,1 -0.61,0.86 -1.2,1.73 -1.75,2.63 -0.18,0.29 -0.35,0.59 -0.52,0.89 -0.56,1 -1.09,1.94 -1.59,2.93 l -0.24,0.49 c -0.56,1.16 -1.06,2.34 -1.52,3.54 -0.06,0.16 -0.13,0.31 -0.19,0.47 -0.45,1.21 -0.85,2.45 -1.21,3.7 0,0.16 -0.09,0.32 -0.13,0.48 -0.35,1.26 -0.64,2.53 -0.88,3.81 l -0.09,0.5 c -0.23,1.29 -0.41,2.6 -0.53,3.91 0,0.15 0,0.3 0,0.46 -0.11,1.36 -0.18,2.72 -0.18,4.09 0,3.3 0.16,6.55 0.42,9.78 5,62.85 57.71,112.46 121.82,112.46 h 14.54 a 101.33,101.33 0 0 0 101.18,-101.17 v -33.34 a 32.65,32.65 0 0 1 -24.74,11.35 z"
             id="path107" />
          <path
             class="cls-4"
             d="m 289.85744,402.22325 a 26.92,26.92 0 0 0 -53.84,0 v 51.6 h 53.84 z"
             id="path109" />
          <path
             class="cls-4"
             d="m 383.76744,414.31325 a 24.76,24.76 0 0 0 -24.73,24.74 v 37.6 a 24.74,24.74 0 0 0 49.47,0 v -37.6 a 24.77,24.77 0 0 0 -24.74,-24.74 z"
             id="path111" />
        </g>
        <text
           class="cls-8"
           id="text120"
           x="212.76781"
           y="762.5976">ROCK</text>
      </g>
    </g>
  </g>
</svg>
